<?xml version="1.0" encoding="iso-8859-1"?>
<!-- Generator: Adobe Illustrator 19.0.0, SVG Export Plug-In . SVG Version: 6.00 Build 0)  -->
<svg version="1.1" id="Capa_1" xmlns="http://www.w3.org/2000/svg" xmlns:xlink="http://www.w3.org/1999/xlink" x="0px" y="0px"
	 viewBox="0 0 491.52 491.52" style="enable-background:new 0 0 491.52 491.52;" xml:space="preserve">
<circle style="fill:#EA8953;" cx="245.76" cy="245.76" r="245.76"/>
<path style="fill:#3A556A;" d="M379.718,104.96H111.804c-3.78,0-6.844,3.064-6.844,6.843v40.031h281.6v-40.031
	C386.56,108.024,383.496,104.96,379.718,104.96z"/>
<rect x="115.763" y="120.668" style="fill:#EBF0F3;" width="176.42" height="15.462"/>
<circle style="fill:#FCD462;" cx="314.266" cy="128.41" r="7.731"/>
<circle style="fill:#44C4A1;" cx="341.837" cy="128.41" r="7.731"/>
<circle style="fill:#E56353;" cx="369.408" cy="128.41" r="7.731"/>
<path style="fill:#64798A;" d="M104.96,151.834v227.883c0,3.779,3.064,6.843,6.844,6.843h64.534V151.834
	C176.338,151.834,104.96,151.834,104.96,151.834z"/>
<path style="fill:#EBF0F3;" d="M176.338,151.834V386.56h203.38c3.779,0,6.842-3.064,6.842-6.843V151.834
	C386.56,151.834,176.338,151.834,176.338,151.834z"/>
<rect x="189.696" y="171.387" style="fill:#44C4A1;" width="179.712" height="64.302"/>
<g>
	<rect x="189.696" y="253.491" style="fill:#D5D6DB;" width="51.2" height="51.2"/>
	<rect x="253.932" y="253.491" style="fill:#D5D6DB;" width="51.2" height="51.2"/>
	<rect x="318.157" y="253.491" style="fill:#D5D6DB;" width="51.2" height="51.2"/>
	<rect x="189.696" y="316.314" style="fill:#D5D6DB;" width="51.2" height="51.2"/>
	<rect x="253.932" y="316.314" style="fill:#D5D6DB;" width="51.2" height="51.2"/>
	<rect x="318.157" y="316.314" style="fill:#D5D6DB;" width="51.2" height="51.2"/>
	<rect x="114.504" y="166.876" style="fill:#D5D6DB;" width="56.474" height="14.305"/>
	<rect x="114.504" y="185.242" style="fill:#D5D6DB;" width="56.474" height="14.305"/>
	<rect x="114.504" y="203.658" style="fill:#D5D6DB;" width="56.474" height="14.305"/>
	<rect x="114.504" y="222.054" style="fill:#D5D6DB;" width="56.474" height="14.305"/>
	<rect x="114.504" y="240.44" style="fill:#D5D6DB;" width="56.474" height="14.305"/>
	<rect x="114.504" y="258.816" style="fill:#D5D6DB;" width="56.474" height="14.305"/>
</g>
<g>
</g>
<g>
</g>
<g>
</g>
<g>
</g>
<g>
</g>
<g>
</g>
<g>
</g>
<g>
</g>
<g>
</g>
<g>
</g>
<g>
</g>
<g>
</g>
<g>
</g>
<g>
</g>
<g>
</g>
</svg>
